<svg width="27" height="23" viewBox="0 0 27 23" fill="none" xmlns="http://www.w3.org/2000/svg">
<g clip-path="url(#clip0_33_21)">
<path d="M7.40529 9.23067H26.1634C26.6309 9.23067 27.0089 9.60863 27.0089 10.0762V12.4951C27.0089 12.9627 26.6309 13.3407 26.1634 13.3407H7.40529L13.1615 19.8444C13.4639 20.186 13.4415 20.7067 13.1111 21.0203L11.6973 22.3613C11.3613 22.6805 10.8349 22.6693 10.5102 22.3417L0.243616 11.9156C-0.081152 11.5852 -0.081152 11.0561 0.243616 10.7257L10.5942 0.251975C10.9273 -0.0839915 11.4705 -0.0839915 11.8008 0.251975L13.3631 1.84501C13.6851 2.17258 13.6851 2.69333 13.3687 3.02369L7.40249 9.23067H7.40529Z" fill="currentColor"/>
</g>
</svg>
