<svg width="29" height="29" viewBox="0 0 29 29" fill="none" xmlns="http://www.w3.org/2000/svg">
<g clip-path="url(#clip0_33_33)">
<path d="M15.5167 3.21752V7.05278H3.93479V24.1358H21.293V12.5627L25.1751 12.5861V26.1266C25.1751 27.1923 24.3173 28.0618 23.2516 28.0764L3.33169 28.3487C1.49897 28.375 -0.00292969 26.8936 -0.00292969 25.0609V5.93733C-0.00292969 4.43543 1.21498 3.21752 2.71688 3.21752H15.5138H15.5167Z" fill="currentColor"/>
<path d="M21.3719 4.09582L11.0402 14.6999C10.5981 15.1537 10.601 15.8739 11.0402 16.3247L11.7838 17.0859C12.2288 17.5426 12.9578 17.5543 13.4204 17.1152L24.2996 6.73073L24.528 10.6128C24.5631 11.2276 25.0725 11.7078 25.6903 11.7078H26.9433C27.5845 11.7078 28.1056 11.1867 28.1056 10.5455V1.16229C28.1056 0.521133 27.5845 6.70552e-06 26.9433 6.70552e-06H17.8002C17.1473 6.70552e-06 16.6233 0.535771 16.6379 1.18572L16.6701 2.73153C16.6818 3.33756 17.1561 3.83233 17.7621 3.87039L21.3778 4.09582H21.3719Z" fill="currentColor"/>
</g>
</svg>
