<?xml version="1.0" encoding="UTF-8"?>
<svg id="Layer_1" xmlns="http://www.w3.org/2000/svg" version="1.1" viewBox="0 0 29 29">
  <!-- Generator: Adobe Illustrator 29.1.0, SVG Export Plug-In . SVG Version: 2.1.0 Build 142)  -->
  <path fill="currentColor" d="M15.9,5.5v3.3H6v14.6h14.8v-9.9h3.3v11.6c0,.9-.7,1.7-1.6,1.7l-17,.2c-1.6,0-2.8-1.2-2.8-2.8V7.8c0-1.3,1-2.3,2.3-2.3h10.9Z"/>
  <path fill="currentColor" d="M20.9,6.2l-8.8,9.1c-.4.4-.4,1,0,1.4l.6.6c.4.4,1,.4,1.4,0l9.3-8.9.2,3.3c0,.5.5.9,1,.9h1.1c.5,0,1-.4,1-1V3.7c0-.5-.4-1-1-1h-7.8c-.6,0-1,.5-1,1v1.3c0,.5.4.9,1,1l3.1.2h0Z"/>
</svg>