<svg width="27" height="23" viewBox="0 0 27 23" fill="none" xmlns="http://www.w3.org/2000/svg">
<g clip-path="url(#clip0_33_23)">
<path d="M19.6036 9.23067H0.845515C0.377962 9.23067 0 9.60863 0 10.0762V12.4951C0 12.9627 0.377962 13.3407 0.845515 13.3407H19.6036L13.8474 19.8444C13.545 20.186 13.5674 20.7067 13.8978 21.0203L15.3117 22.3613C15.6476 22.6805 16.174 22.6693 16.4987 22.3417L26.7653 11.9156C27.0901 11.5852 27.0901 11.0561 26.7653 10.7257L16.4147 0.251975C16.0816 -0.0839915 15.5384 -0.0839915 15.2081 0.251975L13.6458 1.84501C13.3239 2.17258 13.3239 2.69333 13.6402 3.02369L19.6064 9.23067H19.6036Z" fill="currentColor"/>
</g>
</svg>
