<svg width="26" height="26" viewBox="0 0 26 26" fill="none" xmlns="http://www.w3.org/2000/svg">
<g clip-path="url(#clip0_33_64)">
<path d="M12.8041 0C5.73509 0 0 5.73509 0 12.8041C0 19.8731 5.73509 25.6082 12.8041 25.6082C19.8731 25.6082 25.6082 19.8731 25.6082 12.8041C25.6082 5.73509 19.8811 0 12.8041 0ZM21.6064 7.90771C21.6064 7.90771 19.0424 7.87576 18.2197 7.90771C17.5727 5.19992 15.6796 3.39473 15.6796 3.39473C19.7134 4.46506 21.5984 7.90771 21.5984 7.90771H21.6064ZM12.9239 3.25095L15.432 7.89973H10.4158L12.9239 3.25095ZM9.73687 3.39473C9.42535 4.04172 8.63458 4.77658 7.67607 7.90771H4.26537C4.26537 7.90771 6.15044 4.52098 9.73687 3.39473ZM3.17107 15.3442V10.6075H7.09298V15.3442H3.17107ZM4.46506 18.052H7.65211C7.65211 18.052 7.8518 19.4578 9.73687 22.4212C8.86622 22.0537 5.75905 20.7597 4.46506 18.052ZM9.73687 10.6155H16.111V15.3521H9.73687V10.6155ZM12.9239 22.4212L10.4158 18.052H15.432L12.9239 22.4212ZM15.9432 22.4212C16.6781 21.3748 17.2372 20.7597 18.0599 18.052H21.3029C21.3029 18.052 20.4323 21.0713 15.9432 22.4212ZM18.8747 15.3442V10.6075H22.6768V15.3442H18.8747Z" fill="currentColor"/>
</g>
</svg>
