<svg width="18" height="18" viewBox="0 0 18 18" fill="none" xmlns="http://www.w3.org/2000/svg">
<path fill="currentColor" fill-rule="evenodd" clip-rule="evenodd" d="M13.3724 1.85885C15.1797 2.44213 16.1831 3.85645 16.1831 5.82057C16.1831 7.80709 15.276 9.41638 12.6922 12.0136C11.2813 13.4319 8.70891 15.6672 8.48763 15.6672C8.36668 15.6672 6.86676 14.5133 5.96221 13.7245C3.7073 11.7579 2.15704 9.90775 1.35777 8.22888C0.913495 7.2957 0.76657 6.673 0.76657 5.72373C0.76657 4.08787 1.49737 2.8783 2.9139 2.16965C3.67161 1.79054 4.28334 1.67258 5.27511 1.71423C5.99015 1.74421 6.16066 1.78347 6.66711 2.0344C7.24936 2.32288 8.16354 3.17812 8.36702 3.62477C8.45824 3.82493 8.46327 3.82212 8.73276 3.42206C9.24466 2.66188 10.0273 2.08729 10.8965 1.83356C11.5252 1.65009 12.7645 1.6627 13.3724 1.85885Z"/>
</svg>
