<?xml version="1.0" encoding="UTF-8"?>
<svg id="Layer_1" xmlns="http://www.w3.org/2000/svg" version="1.1" viewBox="0 0 31 28">
  <!-- Generator: Adobe Illustrator 29.1.0, SVG Export Plug-In . SVG Version: 2.1.0 Build 142)  -->
  <path fill="currentColor" d="M28.1,9.2s-1.3-3.9-4.3-5.3c-3-1.4-6.1-1.7-6.1-1.7,0,0-3.1-.1-5.6.6-2.4.7-5.2,2.4-5.2,2.4,0,0-2.5,1.7-4.5,3.6l1.7,2.7s.4-.1.5-.4c.1-.2-.2-1.2-.2-1.2,0,0,.6-1.3,2.8-3,0,.5,0,17.5,0,17.5,0,0-.7,0-1.2.7v.3s.2.3.3.3c.2,0,4.7,0,4.7,0,0,0,.2,0,.3-.4,0-.2,0-.2,0-.2,0,0-.4-.5-1.2-.6,0-.2,0-4.2,0-4.2,0,0,3.2,1.4,6.9,1.4s5.7-1.2,5.7-1.2c0,0,2.3-.8,4.4-3.9,2.1-3.2.8-7.4.8-7.4h0ZM22.7,17.8s-1.7,2.2-5.9,2.3c-4.3,0-6.5-1.3-6.5-1.3V5.7s3-2,6.6-1.9c3.7.1,5.2,1.9,5.2,1.9,0,0,2.9,2,2.9,6.2,0,4.3-2.3,5.9-2.3,5.9h0Z"/>
</svg>