<svg width="31" height="28" viewBox="0 0 31 28" fill="none" xmlns="http://www.w3.org/2000/svg">
<g clip-path="url(#clip0_33_58)">
<path d="M30.1417 8.2088C30.1417 8.2088 28.6299 3.67432 25.1233 1.98152C21.6156 0.287648 17.988 0.0049792 17.988 0.0049792C17.988 0.0049792 14.3197 -0.116012 11.4374 0.750197C8.55501 1.61641 5.27006 3.57153 5.27006 3.57153C5.27006 3.57153 2.36735 5.56735 0 7.82441L2.02579 11.0291C2.02579 11.0291 2.50976 10.8577 2.65109 10.5654C2.79243 10.2731 2.45943 9.19493 2.45943 9.19493C2.45943 9.19493 3.19501 7.70342 5.73475 5.64765C5.76473 6.19157 5.82576 26.2461 5.82576 26.2461C5.82576 26.2461 5.01951 26.3167 4.42527 27.093L4.44561 27.4057C4.44561 27.4057 4.63727 27.7386 4.81822 27.7483C5.03986 27.7579 10.3099 27.698 10.3099 27.698C10.3099 27.698 10.5219 27.638 10.6226 27.2547C10.6129 27.063 10.6226 26.9827 10.6226 26.9827C10.6226 26.9827 10.1889 26.3778 9.23171 26.2675C9.22207 26.0362 9.22207 21.37 9.22207 21.37C9.22207 21.37 12.9503 22.9825 17.3649 22.9825C21.7794 22.9825 24.0761 21.5317 24.0761 21.5317C24.0761 21.5317 26.8375 20.6452 29.2562 16.8966C31.675 13.148 30.1428 8.20987 30.1428 8.20987L30.1417 8.2088ZM23.8427 18.326C23.8427 18.326 21.8779 20.9557 16.8595 21.0167C11.841 21.0767 9.25098 19.4749 9.25098 19.4749V4.04586C9.25098 4.04586 12.7479 1.63782 17.0715 1.75881C21.395 1.8798 23.2388 4.04586 23.2388 4.04586C23.2388 4.04586 26.6244 6.3843 26.5944 11.4027C26.5644 16.4212 23.8438 18.326 23.8438 18.326H23.8427Z" fill="currentColor"/>
</g>
</svg>
