<?xml version="1.0" encoding="UTF-8"?>
<svg xmlns="http://www.w3.org/2000/svg" width="111.52" height="79.89" viewBox="0 0 111.52 79.89">
  <g id="a" data-name="Layer 2">
    <circle fill="currentColor" cx="92.32" cy="19.2" r="19.2"/>
    <circle fill="currentColor" cx="19.09" cy="19.31" r="19.09"/>
  </g>
  <g id="b" data-name="Layer 4">
    <path fill="currentColor" d="M86.97,50.96c-1.45-2.03-4.34-2.34-6.19-.65-5.06,4.61-14.87,12.38-23.84,12.64-9.43.28-21.83-8.54-27.7-13.2-1.86-1.48-4.58-1.09-5.97.84l-3.75,5.24c-1.06,1.48-1.04,3.47.05,4.92,3.58,4.76,12.83,14.29,22.21,16.82s19.3,3.63,28.21-.19c3.28-1.32,18.57-7.79,22.55-15.05.78-1.43.58-3.2-.42-4.48-2.19-2.82-3.89-5.13-5.15-6.89Z"/>
  </g>
</svg>