<svg width="24" height="23" viewBox="0 0 24 23" fill="none" xmlns="http://www.w3.org/2000/svg">
<g clip-path="url(#clip0_33_25)">
<path d="M12.6748 0.00606751C15.2863 0.146195 17.7265 1.11504 19.752 2.80294C20.6688 3.57981 21.3249 4.35658 22.0254 5.48361C22.6623 6.52173 23.3762 8.48358 23.5801 9.77658C24.2106 13.7383 22.5291 17.9558 19.2998 20.5227C18.1151 21.4653 15.3631 22.6556 13.8408 22.885C13.3695 22.955 12.6366 23.0061 11.9678 23.0061V23.0002C11.7832 23.0002 11.6113 23.0002 11.4521 22.9875C8.91714 22.8665 6.34406 21.7957 4.38867 20.0568L3.95508 19.6692L6.51562 16.1975L7.03809 16.6877C8.41388 17.9807 10.3059 18.7199 12.2295 18.7199C13.7771 18.7199 15.2294 18.255 16.4268 17.3762C18.6114 15.7711 19.847 12.5542 19.293 9.89181C18.6178 6.59882 15.5794 4.21017 12.0762 4.21017C11.6877 4.21018 11.2927 4.24219 10.9043 4.30587C9.94888 4.4588 8.49653 5.11471 7.7832 5.62423L8.53516 5.9299C10.4268 6.7133 10.4972 6.86666 10.5928 7.08322C10.8727 7.72605 10.7757 7.854 7.10156 9.47775L3.29297 11.1594L1.66895 7.40743C0.662601 5.08901 0.325239 3.91686 0.3125 3.87228L0 2.78927L1.08887 3.08322C1.12708 3.09595 2.02538 3.33762 2.74512 3.62423L3.45215 3.91036L3.57324 3.78341C4.63057 2.64965 5.8918 1.78296 7.54785 1.05685C9.31844 0.279848 10.561 0.00606751 12.2998 0.00606751H12.6748Z" fill="currentColor"/>
</g>
</svg>
