<?xml version="1.0" encoding="UTF-8"?>
<svg id="Layer_1" xmlns="http://www.w3.org/2000/svg" version="1.1" viewBox="0 0 24 23">
  <!-- Generator: Adobe Illustrator 29.1.0, SVG Export Plug-In . SVG Version: 2.1.0 Build 142)  -->
  <path fill="currentColor" d="M12.6,1.3c2.3.1,4.5,1,6.3,2.5.8.7,1.4,1.4,2,2.4.6.9,1.2,2.7,1.4,3.8.6,3.5-.9,7.3-3.8,9.5-1.1.8-3.5,1.9-4.8,2.1-.4,0-1.1.1-1.7.1h0c-.2,0-.3,0-.5,0-2.2-.1-4.5-1.1-6.3-2.6l-.4-.3,2.3-3.1.5.4c1.2,1.1,2.9,1.8,4.6,1.8s2.7-.4,3.7-1.2c1.9-1.4,3-4.3,2.5-6.6-.6-2.9-3.3-5-6.4-5-.3,0-.7,0-1,0-.8.1-2.1.7-2.8,1.2l.7.3c1.7.7,1.7.8,1.8,1,.2.6.2.7-3.1,2.1l-3.4,1.5-1.4-3.3c-.9-2.1-1.2-3.1-1.2-3.1l-.3-1,1,.3s.8.2,1.5.5l.6.3h.1c.9-1.1,2.1-1.9,3.5-2.5,1.6-.7,2.7-.9,4.2-.9h.3Z"/>
</svg>