<?xml version="1.0" encoding="UTF-8"?>
<svg id="Layer_1" xmlns="http://www.w3.org/2000/svg" version="1.1" viewBox="0 0 30 30">
  <!-- Generator: Adobe Illustrator 29.1.0, SVG Export Plug-In . SVG Version: 2.1.0 Build 142)  -->
  <path fill="currentColor" d="M13.1,1.4c0,0-.2.6-.4,1.3-.4,1.6-.8,2.5-1.1,2.5s-.6.2-1,.3c-.7.3-.7.3-1.3,0-.3-.2-.6-.3-.7-.3,0,0-.6-.2-1.2-.5l-1.1-.6-1.2,1.2-1.2,1.2.3.6c1.4,2.7,1.6,3.3,1.1,3.9-.1.2-.3.5-.3.7,0,.2-.2.4-.3.4-.2,0-.7.3-1.1.5s-.9.3-1,.3-.5,0-.8.2l-.6.2v1.8c0,1.6,0,1.8.3,1.9.2,0,.4,0,.5,0,.6,0,3,1.1,3,1.3s.2.5.3.9c.3.7.3.7,0,1.7-.2.6-.6,1.4-.9,1.9l-.5.8,1.2,1.2,1.2,1.2,1.2-.6c.7-.4,1.3-.6,1.3-.7,0,0,.3-.1.5-.2.3-.2.6-.2,1.5.1,1,.3,1.1.4,1.5,1.3.2.5.4,1.1.4,1.3,0,.2.1.6.3.9l.3.6h1.7c0,0,1.7-.1,1.7-.1l.5-1.6c.3-.9.6-1.7.7-1.8.1-.1.6-.4,1.2-.6,1-.3,1-.3,1.5,0,.3.2.5.3.5.2s.6.2,1.2.5l1.2.7,1.2-1.2,1.2-1.2-.9-1.8c-.8-1.7-.9-1.8-.7-2.4.1-.3.3-.8.3-1,0-.4,1.4-1,3.2-1.5l.9-.2v-1.6c0-.9,0-1.7-.2-1.8,0-.1-.4-.3-.7-.3-1-.1-3.2-1-3.2-1.3s-.2-.6-.3-1l-.3-.7.9-1.8.9-1.8-1.1-1.2c-.6-.6-1.2-1.2-1.3-1.2s-.6.3-1.1.6c-.5.3-1.1.6-1.3.6-.2,0-.5.2-.7.3-.2.2-.5.2-.6.1-.1,0-.6-.3-1-.4l-.8-.3-.6-1.9-.6-1.9h-1.7c-.9,0-1.7,0-1.8.1ZM16,10.9c.8.2.9.3,2,1.3.8.7,1.3,1.9,1.2,3,0,1.5-1.1,2.9-2.7,3.7-1.7.8-3.3.4-4.8-1.2-1.5-1.6-1.5-3.8,0-5.4,1.4-1.5,2.6-1.9,4.3-1.5Z"/>
</svg>