<?xml version="1.0" encoding="UTF-8"?>
<svg xmlns="http://www.w3.org/2000/svg" width="115.25" height="83.39" viewBox="0 0 115.25 83.39">
  <g id="a" data-name="Layer 3">
    <circle fill="currentColor" cx="57.4" cy="42.01" r="15.54"/>
  </g>
  <g id="b" data-name="Layer 5">
    <path fill="currentColor" d="M57.71,0C28.08.02,7.72,27.46,1.29,37.45c-1.46,2.26-1.7,5.09-.62,7.56,4.61,10.52,20.17,38.31,56.08,38.38,35.59.06,52.3-26.32,57.6-36.99,1.33-2.68,1.19-5.85-.41-8.39C107.33,27.52,87.16-.02,57.71,0ZM56.81,63.74c-12.88,0-23.33-9.73-23.33-21.73s10.44-21.73,23.33-21.73,23.33,9.73,23.33,21.73-10.44,21.73-23.33,21.73Z"/>
  </g>
</svg>